# xmcd CD database file
#
# Track frame offsets:
#	150
#	22901
#	48238
#	75562
#	100293
#	133908
#
# Disc length: 2279 seconds
#
# Revision: 1
# Processed by: cddbd v1.5.2PL0 Copyright (c) Steve Scherf et al.
# Submitted via: CDex 1.51
#
DISCID=4208e506
DTITLE=Michael Longo - 900 Shares Of The Blues
DYEAR=1972
DGENRE=Jazz
TTITLE0=900 Shares Of The Blues
TTITLE1=Like A Thief In The Night
TTITLE2=Ocean Of His Might
TTITLE3=Magic Number
TTITLE4=Summers Gone
TTITLE5=El Moodo Grande
EXTD=YEAR: 1972
EXTT0=
EXTT1=
EXTT2=
EXTT3=
EXTT4=
EXTT5=
PLAYORDER=
